<svg xmlns="http://www.w3.org/2000/svg" viewBox="75 325 870 380">
  <!-- L -->
  <path fill="currentColor" d="M171.448 343.518C145.575 352.627 142.657 363.031 143 389.412C143.134 399.665 142.975 410.823 142.971 421.191L142.932 490.279L142.902 575.902C142.913 590.656 142.825 605.416 143.104 620.166C143.297 630.364 147.22 635.921 157.306 638.456L158.129 638.578C159.353 638.753 160.417 638.794 161.646 638.846L161.78 639.383C154.371 639.655 147.093 639.152 139.692 639.153C121.193 639.038 102.694 639.198 84.1994 639.631C92.2595 636.939 106.118 630.848 108.318 621.546C113.293 600.501 111.975 577.031 111.959 555.449L111.967 487.928L111.98 420.985C111.975 407.965 112.062 394.842 111.677 381.842C110.999 358.92 105.22 352.304 84.5879 344.155C92.1439 344.637 100.94 343.866 108.629 343.825C127.559 343.725 153.052 345.474 171.448 343.518Z"/>
  <path fill="currentColor" d="M157.306 638.456C162.758 637.708 170.501 638.294 176.221 638.145L176.495 638.742L180.615 639.053C174.479 639.726 167.953 639.561 161.78 639.383L161.646 638.846C160.417 638.794 159.353 638.753 158.129 638.578L157.306 638.456Z"/>

  <!-- I -->
  <path fill="currentColor" d="M336.752 407.366C336.984 408.446 332.005 423.848 331.3 426.583C329.881 432.163 328.726 437.806 327.84 443.495C324.802 462.293 325.049 483.043 325.025 502.094C325.145 538.264 323.824 577.849 340.79 610.906C371.157 670.073 446.995 698.572 508.171 671.024C514.968 667.963 521.156 664.298 527.775 660.994C518.989 668.451 501.235 675.048 490.203 678.673C452.809 689.868 412.611 686.998 377.187 670.604C321.587 644.382 293.549 587.907 292.359 527.889C291.856 502.516 296.514 475.311 289.346 450.434C286.869 441.834 279.078 436.124 271.42 432.555C274.69 433.331 277.448 433.908 280.821 433.859C304.034 433.52 323.806 427.777 336.752 407.366Z"/>
  <defs>
    <linearGradient id="livra_gradient" gradientUnits="userSpaceOnUse" x1="276.11954" y1="402.47256" x2="346.19388" y2="357.6073">
      <stop offset="0" stop-color="#AB8039"/>
      <stop offset="1" stop-color="#D6AF5E"/>
    </linearGradient>
  </defs>
  <path fill="url(#livra_gradient)" d="M319.775 335.13C325.171 334.889 329.115 335.312 334.426 336.27C334.656 345.7 334.536 355.254 334.556 364.897C334.591 381.187 338.392 403.609 324.874 415.77C317.15 422.719 305.723 424.6 295.74 423.82C286.854 421.51 280.558 414.359 279.694 405.205C277.047 377.166 288.049 340.111 319.775 335.13ZM285.68 386.505C289.074 372.609 293.961 359.291 303.788 348.55C304.693 347.561 306.342 346.546 305.866 345.515C291.878 356.13 287.862 364.631 285.572 382.236C285.377 383.739 285.114 384.647 285.384 386.217L285.68 386.505Z"/>
  <path fill="currentColor" d="M289.951 581.43C288.754 594.906 284.727 630.13 274.695 640.177C272.748 642.127 266.021 640.851 263.18 640.407C253.052 638.823 241.939 638.958 231.616 638.893C221.084 638.789 210.552 638.776 200.021 638.854C195.322 638.915 184.815 639.343 180.615 639.053L176.495 638.742L176.221 638.145C207.105 636.642 241.773 630.748 267.699 612.59C278.364 605.12 284.828 593.115 289.951 581.43Z"/>

  <!-- V (Handcrafted Didone Serif matching L, I, R, A) -->
  <path fill="currentColor" d="M386 422C394 421.5 406 421.2 415 422.2C418.5 422.6 420 424.5 421 428L478 616C483 632 489 641 498 641C506 641 511 633 516 618L578 428C579 424.5 580.5 422.6 584 422.2C593 421.2 604 421.5 612 422C614 422.2 615 424 614.5 425.5C614 427 612 428.5 610 429.5C599 434 584 445 572 480L515 639C512 647 504 651 497 651C490 651 482 647 479 639L418 440C412 421 400 424 386 424C384.5 424 384 422.5 386 422Z"/>
  <path fill="currentColor" d="M410 420C413 420 435 419.5 448 420C452 420.2 453 422 451.5 423.5C448 426.5 444 430 442 436L488 585C491 595 496 600 501 600C504 600 508 596 511 587L566 425C564 422 559 420.5 554 420C552 419.8 552 418.5 554 418.5C565 418.5 585 418.2 602 418.5C604 418.5 604.5 420 603 420.5C598 422 593 425 589 432L518 637C513 651 502 654 496 654C489 654 479 649 474 635L418 434C415 425 410 422 405 421C404 420.8 404 419.8 406 419.8C407 419.8 409 420 410 420Z"/>

  <!-- R -->
  <path fill="currentColor" d="M625.1 478.504C625.202 488.756 625.243 499.008 625.223 509.261C625.37 525.974 625.417 542.688 625.363 559.402C625.356 568.25 626.251 581.325 624.225 589.55C622.772 590.378 619.345 595.991 618.751 597.498C620.707 595.559 623.063 592.565 624.234 590.044L624.225 589.55C626.067 587.4 628.208 582.61 629.269 579.914C637.526 558.68 634.093 538.539 635.437 516.334C637.957 474.72 662.934 415.442 712.805 417.873C732.763 418.846 745.873 430.203 758.48 444.77C753.264 448.851 739.406 456.4 733.282 459.851C718.606 440.465 695.606 432.957 674.838 444.846C633.603 468.453 637.872 521.722 635.963 562.164C635.393 574.222 629.587 582.428 626.082 593.087C623.347 601.406 625.032 621.217 629.201 629.421C633.398 637.746 640.206 637.664 647.587 639.745C646.117 640.27 578.97 639.812 571.357 639.984C579.01 638.037 589.512 635.785 592.369 627.543C594.098 622.555 595.46 615.503 595.706 610.223C596.588 591.282 595.896 572.241 596.116 553.278C595.608 530.767 598.445 452.938 590.628 434.922C587.421 427.691 581.471 422.031 574.089 419.188C560.74 414.066 536.57 418.519 523.018 422.551C516.368 424.529 508.599 427.934 502.172 430.769C518.22 439.484 530.948 449.916 541.798 464.65C581.288 518.281 570.749 581.113 517.57 620.341C501.308 631.492 471.383 645.009 451.487 641.185C356.642 622.808 314.207 503.022 396.923 441.15C411.825 430.003 443.315 416.862 462.136 419.663C460.658 420.134 451.339 420.68 448.768 421C435.001 422.595 423.318 431.128 414.221 441.199C372.064 487.865 372.614 582.906 420.118 625.526ZM624.225 589.55L624.234 590.044C623.063 592.565 620.707 595.559 618.751 597.498C619.345 595.991 622.772 590.378 624.225 589.55Z"/>

  <!-- A -->
  <path fill="currentColor" d="M846.301 421.035C848.446 420.922 851.793 422.091 853.953 422.785C879.339 430.362 898.58 456.464 901.423 482.655C904.674 512.612 902.426 545.751 903.556 576.249C904.137 591.954 902.851 608.896 910.421 623.544C916.767 635.823 923.535 636.746 935.352 640.456C934.669 641.062 932.949 640.91 931.949 640.977C901.951 642.995 876.219 626.599 874.339 594.848C873.376 578.592 874.599 561.267 873.926 544.528C871.401 563.065 861.195 587.439 851.463 603.183C843.071 615.418 832.697 626.903 819.198 633.38C786.592 649.025 743.193 635.047 727.546 602.444C720.262 587.008 719.37 569.319 725.064 553.229C734.738 526.57 760.983 509.971 787.111 500.083C810.477 491.241 853.252 484.707 863.939 458.238C869.234 445.125 860.251 425.723 846.301 421.035ZM770.801 622.749C793.547 643.244 824.584 629.057 842.148 608.96C857.005 591.751 867.318 569.389 872.443 547.321C873.374 543.316 873.405 529.62 873.364 525.415C873.195 507.696 875.958 453.839 865.45 440.372C866.817 450.818 866.438 460.399 859.493 469.02C846.392 485.283 821.144 490.51 803.198 500.082C794.116 504.926 786.603 510.933 779.513 518.249C772.217 525.661 766.206 534.237 761.728 543.624C749.459 569.677 750.004 601.212 770.801 622.749Z"/>
  <path fill="currentColor" d="M820.076 419.701L820.178 419.74L819.911 420.271L816.962 421.096C810.516 422.886 799.763 431.366 794.889 435.961C780.442 449.583 773.114 474.108 772.904 493.602C771.974 491.775 771.467 490.059 770.819 488.129C768.216 477.5 761.762 455.215 767.849 446.57C778.445 431.521 803.215 423.228 820.076 419.701Z"/>
</svg>

